<svg xmlns="http://www.w3.org/2000/svg" xmlns:xlink="http://www.w3.org/1999/xlink" width="185" zoomAndPan="magnify" viewBox="0 0 138.75 30.000001" height="40" preserveAspectRatio="xMidYMid meet" version="1.2"><defs><clipPath id="afaeb885c9"><path d="M 6 3 L 37.679688 3 L 37.679688 29 L 6 29 Z M 6 3 "/></clipPath><clipPath id="b6fbd8c8a6"><path d="M 5.019531 9 L 27 9 L 27 25 L 5.019531 25 Z M 5.019531 9 "/></clipPath><clipPath id="4924571ce7"><path d="M 12 3 L 37.679688 3 L 37.679688 29.03125 L 12 29.03125 Z M 12 3 "/></clipPath><filter x="0%" y="0%" width="100%" filterUnits="objectBoundingBox" id="07558fca8d" height="100%"><feColorMatrix values="0 0 0 0 1 0 0 0 0 1 0 0 0 0 1 0 0 0 1 0" type="matrix" in="SourceGraphic"/></filter><clipPath id="894a072600"><path d="M 0.105469 0.484375 L 25.652344 0.484375 L 25.652344 26 L 0.105469 26 Z M 0.105469 0.484375 "/></clipPath><clipPath id="68c827437f"><rect x="0" width="26" y="0" height="27"/></clipPath><clipPath id="eb5d0863a2"><path d="M 5.019531 10 L 20 10 L 20 25 L 5.019531 25 Z M 5.019531 10 "/></clipPath><clipPath id="297d4d7511"><path d="M 1 0.683594 L 14.769531 0.683594 L 14.769531 14.386719 L 1 14.386719 Z M 1 0.683594 "/></clipPath><clipPath id="5068e97d1a"><rect x="0" width="15" y="0" height="15"/></clipPath><clipPath id="674ec3a2fe"><path d="M 0.710938 1 L 5.125 1 L 5.125 6 L 0.710938 6 Z M 0.710938 1 "/></clipPath><clipPath id="0dc2599e75"><rect x="0" width="6" y="0" height="7"/></clipPath><clipPath id="8239f1ea45"><path d="M 0.515625 0.472656 L 5 0.472656 L 5 6 L 0.515625 6 Z M 0.515625 0.472656 "/></clipPath><clipPath id="c778fbdaba"><rect x="0" width="6" y="0" height="7"/></clipPath><clipPath id="e7bc4d9c7b"><path d="M 0.324219 0.433594 L 4.96875 0.433594 L 4.96875 6.703125 L 0.324219 6.703125 Z M 0.324219 0.433594 "/></clipPath><clipPath id="3e787faa32"><rect x="0" width="5" y="0" height="7"/></clipPath><clipPath id="09a0d4a2f0"><path d="M 0.128906 0 L 4.773438 0 L 4.773438 8.128906 L 0.128906 8.128906 Z M 0.128906 0 "/></clipPath><clipPath id="3320920c7f"><rect x="0" width="5" y="0" height="9"/></clipPath><clipPath id="976b9047d3"><path d="M 45.378906 20.105469 L 76 20.105469 L 76 21 L 45.378906 21 Z M 45.378906 20.105469 "/></clipPath><clipPath id="a5a466161b"><path d="M 82 20.105469 L 113.605469 20.105469 L 113.605469 21 L 82 21 Z M 82 20.105469 "/></clipPath><clipPath id="61bc8671aa"><path d="M 78 20.105469 L 80 20.105469 L 80 21.558594 L 78 21.558594 Z M 78 20.105469 "/></clipPath></defs><g id="5a55913494"><g clip-rule="nonzero" clip-path="url(#afaeb885c9)"><path style=" stroke:none;fill-rule:nonzero;fill:#0056a2;fill-opacity:1;" d="M 37.476562 12.925781 L 34.65625 11.664062 C 33.898438 13.429688 33.277344 15.277344 32.539062 17.066406 C 32.050781 18.269531 31.507812 19.4375 30.867188 20.546875 C 30.75 20.738281 30.632812 20.953125 30.515625 21.128906 C 30.476562 21.207031 30.417969 21.285156 30.359375 21.363281 L 30.339844 21.398438 C 30.167969 21.652344 30.011719 21.90625 29.835938 22.140625 C 29.796875 22.101562 29.757812 22.082031 29.71875 22.042969 C 29.757812 22.082031 29.796875 22.101562 29.816406 22.140625 C 29.816406 22.140625 29.796875 22.160156 29.796875 22.179688 C 29.351562 22.761719 28.882812 23.324219 28.359375 23.847656 C 28.339844 23.867188 28.320312 23.886719 28.300781 23.90625 C 27.8125 24.414062 27.289062 24.878906 26.746094 25.308594 C 25.460938 26.316406 24.042969 27.152344 22.546875 27.757812 C 22.023438 27.96875 21.476562 28.164062 20.933594 28.320312 C 20.097656 28.554688 19.222656 28.726562 18.367188 28.824219 C 17.300781 28.941406 16.191406 28.960938 15.101562 28.824219 C 14.480469 28.746094 13.878906 28.632812 13.257812 28.476562 C 13.257812 28.476562 13.257812 28.476562 13.238281 28.476562 C 12.925781 28.398438 12.59375 28.300781 12.285156 28.183594 C 11.816406 28.027344 11.371094 27.851562 10.921875 27.640625 C 10.496094 27.445312 10.085938 27.210938 9.679688 26.980469 C 9.347656 26.765625 9.019531 26.570312 8.707031 26.335938 C 8.28125 25.949219 7.871094 25.519531 7.503906 25.054688 C 7.25 24.722656 6.996094 24.375 6.785156 24.003906 C 6.996094 24.21875 7.230469 24.433594 7.464844 24.605469 C 7.734375 24.800781 8.027344 24.996094 8.320312 25.171875 C 9.136719 25.636719 10.011719 25.988281 10.921875 26.21875 C 11.136719 26.277344 11.351562 26.316406 11.566406 26.375 C 12.730469 26.609375 13.9375 26.667969 15.121094 26.589844 C 15.667969 26.550781 16.191406 26.492188 16.734375 26.394531 C 17.882812 26.183594 19.027344 25.851562 20.117188 25.386719 C 20.390625 25.269531 20.640625 25.152344 20.914062 25.035156 C 21.457031 24.761719 22.023438 24.472656 22.527344 24.140625 C 24.160156 23.128906 25.597656 21.867188 26.726562 20.371094 C 26.902344 20.15625 27.035156 19.941406 27.191406 19.710938 C 27.210938 19.691406 27.230469 19.671875 27.25 19.632812 C 27.484375 19.320312 27.699219 19.007812 27.890625 18.699219 C 28.027344 18.503906 28.125 18.308594 28.242188 18.117188 C 28.28125 18.058594 28.300781 18.019531 28.339844 17.960938 C 29.699219 15.570312 30.574219 12.90625 31.605469 10.320312 L 29.097656 9.195312 C 29.117188 9.175781 36.289062 3.671875 36.289062 3.671875 Z M 37.476562 12.925781 "/></g><g clip-rule="nonzero" clip-path="url(#b6fbd8c8a6)"><path style=" stroke:none;fill-rule:nonzero;fill:#0056a2;fill-opacity:1;" d="M 26.414062 17.628906 C 26.335938 17.570312 26.257812 17.492188 26.199219 17.414062 C 25.734375 16.949219 25.25 16.503906 24.761719 16.074219 L 24.742188 16.054688 C 24.550781 15.878906 24.335938 15.707031 24.121094 15.53125 C 24.082031 15.511719 24.0625 15.472656 24.023438 15.453125 C 23.539062 15.042969 23.050781 14.675781 22.527344 14.304688 C 22.507812 14.304688 22.507812 14.285156 22.488281 14.285156 C 21.613281 13.664062 20.660156 13.121094 19.710938 12.710938 C 19.652344 12.691406 19.574219 12.652344 19.515625 12.632812 C 19.515625 12.632812 19.496094 12.632812 19.496094 12.613281 C 16.519531 11.371094 13.292969 11.214844 10.921875 13.179688 C 10.632812 13.429688 10.359375 13.703125 10.105469 13.996094 C 9.078125 15.199219 8.453125 16.714844 8.105469 18.25 C 7.753906 19.824219 7.484375 21.789062 7.871094 23.382812 C 7.871094 23.402344 7.96875 23.636719 8.046875 23.867188 C 8.125 24.101562 8.164062 24.335938 8.007812 24.257812 L 7.929688 24.199219 C 7.675781 24.003906 7.425781 23.789062 7.191406 23.558594 C 6.472656 22.820312 5.890625 21.90625 5.558594 20.992188 C 5.558594 20.992188 5.558594 20.992188 5.558594 20.972656 C 5.5 20.816406 5.460938 20.660156 5.421875 20.507812 C 5.246094 19.882812 5.171875 19.242188 5.171875 18.582031 C 5.035156 15.839844 5.929688 13.277344 7.523438 11.507812 C 7.8125 11.15625 8.105469 10.847656 8.453125 10.554688 C 9.289062 9.875 10.222656 9.425781 11.214844 9.234375 L 11.234375 9.234375 C 11.273438 9.214844 11.3125 9.214844 11.371094 9.195312 C 12.730469 8.882812 14.074219 8.980469 15.355469 9.40625 C 15.375 9.40625 15.394531 9.425781 15.414062 9.425781 C 17.027344 9.855469 18.621094 10.652344 20.058594 11.664062 C 20.953125 12.285156 21.789062 12.964844 22.605469 13.703125 C 23.886719 14.851562 25.09375 16.113281 26.277344 17.414062 C 26.277344 17.492188 26.355469 17.570312 26.414062 17.628906 Z M 26.414062 17.628906 "/></g><path style=" stroke:none;fill-rule:nonzero;fill:#46b9ea;fill-opacity:1;" d="M 15.101562 17.183594 L 15.101562 25.636719 C 14.773438 25.65625 14.441406 25.675781 14.109375 25.675781 C 13.292969 25.675781 12.496094 25.597656 11.71875 25.441406 C 11.449219 25.386719 11.175781 25.328125 10.902344 25.25 L 10.902344 18.136719 C 12.167969 18.078125 13.566406 17.804688 15.101562 17.183594 Z M 15.101562 17.183594 "/><path style=" stroke:none;fill-rule:nonzero;fill:#46b9ea;fill-opacity:1;" d="M 20.914062 13.585938 L 20.914062 23.964844 C 20.527344 24.160156 20.15625 24.335938 19.746094 24.511719 L 19.632812 24.550781 C 18.679688 24.9375 17.707031 25.230469 16.714844 25.421875 L 16.714844 16.425781 C 17.863281 15.820312 19.066406 15.042969 20.332031 14.035156 C 20.527344 13.898438 20.71875 13.742188 20.914062 13.585938 Z M 20.914062 13.585938 "/><path style=" stroke:none;fill-rule:nonzero;fill:#46b9ea;fill-opacity:1;" d="M 30.417969 10.769531 L 28.339844 9.835938 L 28.339844 15.917969 C 28.960938 14.617188 29.464844 13.238281 30.011719 11.816406 C 30.148438 11.46875 30.28125 11.117188 30.417969 10.769531 Z M 30.417969 10.769531 "/><path style=" stroke:none;fill-rule:nonzero;fill:#46b9ea;fill-opacity:1;" d="M 32.539062 0 L 32.539062 5.753906 C 31.46875 6.472656 30.378906 7.171875 29.621094 7.675781 C 29.175781 7.96875 28.613281 8.359375 28.515625 8.4375 L 28.339844 8.570312 L 28.339844 5.792969 C 29.679688 4.082031 31.078125 2.15625 32.539062 0 Z M 32.539062 0 "/><path style=" stroke:none;fill-rule:nonzero;fill:#46b9ea;fill-opacity:1;" d="M 32.539062 19.339844 C 32.226562 19.960938 31.914062 20.582031 31.566406 21.1875 C 31.894531 21.457031 32.226562 21.730469 32.539062 21.984375 Z M 32.539062 19.339844 "/><path style=" stroke:none;fill-rule:nonzero;fill:#46b9ea;fill-opacity:1;" d="M 29.992188 23.460938 L 29.972656 23.441406 C 29.660156 23.828125 29.3125 24.199219 28.960938 24.550781 C 28.765625 24.742188 28.554688 24.9375 28.359375 25.132812 L 28.359375 28.804688 L 32.558594 28.804688 L 32.558594 24.742188 C 31.820312 24.121094 31.117188 23.460938 30.476562 22.820312 Z M 29.992188 23.460938 "/><path style=" stroke:none;fill-rule:nonzero;fill:#46b9ea;fill-opacity:1;" d="M 26.726562 7.753906 L 26.726562 16.597656 C 26.707031 16.578125 26.6875 16.558594 26.667969 16.523438 C 25.734375 15.511719 24.742188 14.480469 23.714844 13.527344 C 23.324219 13.160156 22.9375 12.808594 22.527344 12.460938 L 22.527344 12.167969 C 23.867188 10.941406 25.269531 9.484375 26.726562 7.753906 Z M 26.726562 7.753906 "/><path style=" stroke:none;fill-rule:nonzero;fill:#46b9ea;fill-opacity:1;" d="M 22.527344 15.453125 L 22.527344 23.011719 C 24.101562 21.964844 25.421875 20.660156 26.414062 19.183594 C 26.433594 19.144531 26.453125 19.105469 26.492188 19.085938 L 26.53125 19.046875 L 25.773438 18.308594 C 24.625 17.164062 23.558594 16.230469 22.527344 15.453125 Z M 22.527344 15.453125 "/><path style=" stroke:none;fill-rule:nonzero;fill:#46b9ea;fill-opacity:1;" d="M 22.527344 28.824219 L 26.726562 28.824219 L 26.726562 26.472656 C 25.421875 27.425781 24.003906 28.183594 22.527344 28.746094 Z M 22.527344 28.824219 "/><g clip-rule="nonzero" clip-path="url(#4924571ce7)"><g mask="url(#d793fe0649)" transform="matrix(1,0,0,1,12,3)"><g clip-path="url(#68c827437f)"><g clip-rule="nonzero" clip-path="url(#894a072600)"><path style=" stroke:none;fill-rule:nonzero;fill:#197fab;fill-opacity:1;" d="M 25.476562 9.925781 L 22.65625 8.664062 C 21.898438 10.429688 21.277344 12.277344 20.539062 14.066406 C 20.050781 15.269531 19.507812 16.4375 18.867188 17.546875 C 18.75 17.738281 18.632812 17.953125 18.515625 18.128906 C 18.476562 18.207031 18.417969 18.285156 18.359375 18.363281 L 18.339844 18.398438 C 18.167969 18.652344 18.011719 18.90625 17.835938 19.140625 C 17.796875 19.101562 17.757812 19.082031 17.71875 19.042969 C 17.757812 19.082031 17.796875 19.101562 17.816406 19.140625 C 17.816406 19.140625 17.796875 19.160156 17.796875 19.179688 C 17.351562 19.761719 16.882812 20.324219 16.359375 20.847656 C 16.339844 20.867188 16.320312 20.886719 16.300781 20.90625 C 15.8125 21.414062 15.289062 21.878906 14.746094 22.308594 C 13.460938 23.316406 12.042969 24.152344 10.546875 24.757812 C 10.023438 24.96875 9.476562 25.164062 8.933594 25.320312 C 8.097656 25.554688 7.222656 25.726562 6.367188 25.824219 C 5.300781 25.941406 4.191406 25.960938 3.101562 25.824219 C 2.480469 25.746094 1.878906 25.632812 1.257812 25.476562 C 1.257812 25.476562 1.257812 25.476562 1.238281 25.476562 C 0.925781 25.398438 0.59375 25.300781 0.285156 25.183594 C 16.261719 27.4375 20.925781 11.167969 21.820312 7.222656 C 21.917969 6.777344 22.382812 6.523438 22.832031 6.679688 L 23.9375 7.085938 L 24.210938 1.121094 L 24.289062 0.632812 Z M 25.476562 9.925781 "/></g></g><mask id="d793fe0649"><g filter="url(#07558fca8d)"><rect x="0" width="138.75" y="0" height="30.000001" style="fill:#000000;fill-opacity:0.2;stroke:none;"/></g></mask></g></g><g clip-rule="nonzero" clip-path="url(#eb5d0863a2)"><g mask="url(#4fafa8d0c8)" transform="matrix(1,0,0,1,5,10)"><g clip-path="url(#5068e97d1a)"><g clip-rule="nonzero" clip-path="url(#297d4d7511)"><path style=" stroke:none;fill-rule:nonzero;fill:#197fab;fill-opacity:1;" d="M 14.476562 2.613281 C 11.503906 1.371094 8.277344 1.214844 5.902344 3.179688 C 5.613281 3.429688 5.339844 3.703125 5.085938 3.996094 C 4.058594 5.199219 3.4375 6.714844 3.085938 8.25 C 2.734375 9.824219 2.464844 11.789062 2.851562 13.382812 C 2.851562 13.402344 2.949219 13.636719 3.027344 13.867188 C 3.105469 14.101562 3.144531 14.335938 2.988281 14.257812 L 2.910156 14.199219 C 0.171875 10.914062 0.597656 5.453125 3.804688 2.613281 C 6.777344 -0.046875 11.035156 0.921875 14.476562 2.613281 Z M 14.476562 2.613281 "/></g></g><mask id="4fafa8d0c8"><g filter="url(#07558fca8d)"><rect x="0" width="138.75" y="0" height="30.000001" style="fill:#000000;fill-opacity:0.2;stroke:none;"/></g></mask></g></g><g mask="url(#0e65f49d01)" transform="matrix(1,0,0,1,10,16)"><g clip-path="url(#0dc2599e75)"><g clip-rule="nonzero" clip-path="url(#674ec3a2fe)"><path style=" stroke:none;fill-rule:nonzero;fill:#197fab;fill-opacity:1;" d="M 0.902344 2.136719 C 2.167969 2.097656 3.566406 1.804688 5.101562 1.183594 L 5.101562 3.882812 C 3.800781 4.582031 2.402344 5.246094 0.902344 5.847656 Z M 0.902344 2.136719 "/></g></g><mask id="0e65f49d01"><g filter="url(#07558fca8d)"><rect x="0" width="138.75" y="0" height="30.000001" style="fill:#000000;fill-opacity:0.2;stroke:none;"/></g></mask></g><g mask="url(#d4605e0d7e)" transform="matrix(1,0,0,1,16,13)"><g clip-path="url(#c778fbdaba)"><g clip-rule="nonzero" clip-path="url(#8239f1ea45)"><path style=" stroke:none;fill-rule:nonzero;fill:#197fab;fill-opacity:1;" d="M 4.332031 1.035156 C 4.527344 0.878906 4.71875 0.742188 4.894531 0.585938 L 4.894531 3.015625 C 3.632812 4.046875 2.230469 5.039062 0.695312 5.953125 L 0.695312 3.425781 C 1.863281 2.820312 3.066406 2.042969 4.332031 1.035156 Z M 4.332031 1.035156 "/></g></g><mask id="d4605e0d7e"><g filter="url(#07558fca8d)"><rect x="0" width="138.75" y="0" height="30.000001" style="fill:#000000;fill-opacity:0.2;stroke:none;"/></g></mask></g><g mask="url(#fabdfd061a)" transform="matrix(1,0,0,1,22,7)"><g clip-path="url(#3e787faa32)"><g clip-rule="nonzero" clip-path="url(#e7bc4d9c7b)"><path style=" stroke:none;fill-rule:nonzero;fill:#197fab;fill-opacity:1;" d="M 4.726562 0.753906 L 4.726562 3.203125 C 3.832031 4.292969 2.839844 5.421875 1.714844 6.527344 C 1.324219 6.160156 0.9375 5.808594 0.527344 5.460938 L 0.527344 5.167969 C 1.867188 3.941406 3.269531 2.484375 4.726562 0.753906 Z M 4.726562 0.753906 "/></g></g><mask id="fabdfd061a"><g filter="url(#07558fca8d)"><rect x="0" width="138.75" y="0" height="30.000001" style="fill:#000000;fill-opacity:0.2;stroke:none;"/></g></mask></g><g mask="url(#a7e5aa0c0e)" transform="matrix(1,0,0,1,28,0.000000000000005692)"><g clip-path="url(#3320920c7f)"><g clip-rule="nonzero" clip-path="url(#09a0d4a2f0)"><path style=" stroke:none;fill-rule:nonzero;fill:#197fab;fill-opacity:1;" d="M 4.539062 0.0195312 C 4.480469 0.234375 3.351562 3.730469 0.359375 8.046875 L 0.359375 5.792969 C 1.679688 4.082031 3.078125 2.15625 4.539062 0.0195312 Z M 4.539062 0.0195312 "/></g></g><mask id="a7e5aa0c0e"><g filter="url(#07558fca8d)"><rect x="0" width="138.75" y="0" height="30.000001" style="fill:#000000;fill-opacity:0.2;stroke:none;"/></g></mask></g><g style="fill:#0056a2;fill-opacity:1;"><g transform="translate(55.597656, 17.10949)"><path style="stroke:none" d="M 0.03125 -11.96875 L 3.96875 -11.96875 L 5.8125 -4.5 L 7.65625 -11.96875 L 11.75 -11.96875 L 8.015625 0 L 3.578125 0 Z M 0.03125 -11.96875 "/></g></g><g style="fill:#0056a2;fill-opacity:1;"><g transform="translate(67.283695, 17.10949)"><path style="stroke:none" d="M 1.125 -11.96875 L 4.75 -11.96875 L 7.734375 -6.15625 L 10.65625 -11.96875 L 14.28125 -11.96875 L 14.28125 0 L 10.65625 0 L 10.65625 -6.375 L 8.453125 -2.203125 L 6.96875 -2.203125 L 4.75 -6.375 L 4.75 0 L 1.125 0 Z M 1.125 -11.96875 "/></g></g><g style="fill:#0056a2;fill-opacity:1;"><g transform="translate(82.708571, 17.10949)"><path style="stroke:none" d="M 4.828125 0.28125 C 3.191406 0.28125 1.816406 -0.0195312 0.703125 -0.625 L 1.5625 -3.328125 C 2.757812 -2.890625 3.828125 -2.671875 4.765625 -2.671875 C 5.273438 -2.671875 5.648438 -2.734375 5.890625 -2.859375 C 6.128906 -2.984375 6.25 -3.164062 6.25 -3.40625 C 6.25 -3.570312 6.179688 -3.710938 6.046875 -3.828125 C 5.921875 -3.953125 5.664062 -4.085938 5.28125 -4.234375 C 4.90625 -4.390625 4.332031 -4.578125 3.5625 -4.796875 C 2.625 -5.078125 1.894531 -5.53125 1.375 -6.15625 C 0.851562 -6.789062 0.59375 -7.519531 0.59375 -8.34375 C 0.59375 -9.625 1.007812 -10.585938 1.84375 -11.234375 C 2.6875 -11.890625 3.820312 -12.21875 5.25 -12.21875 C 5.988281 -12.21875 6.71875 -12.140625 7.4375 -11.984375 C 8.15625 -11.828125 8.796875 -11.597656 9.359375 -11.296875 L 8.421875 -8.671875 C 7.765625 -8.898438 7.195312 -9.0625 6.71875 -9.15625 C 6.238281 -9.25 5.773438 -9.296875 5.328125 -9.296875 C 4.554688 -9.296875 4.171875 -9.085938 4.171875 -8.671875 C 4.171875 -8.460938 4.296875 -8.285156 4.546875 -8.140625 C 4.796875 -8.003906 5.3125 -7.820312 6.09375 -7.59375 C 7.300781 -7.269531 8.21875 -6.773438 8.84375 -6.109375 C 9.476562 -5.441406 9.796875 -4.644531 9.796875 -3.71875 C 9.796875 -2.4375 9.375 -1.445312 8.53125 -0.75 C 7.695312 -0.0625 6.460938 0.28125 4.828125 0.28125 Z M 4.828125 0.28125 "/></g></g><g style="fill:#0056a2;fill-opacity:1;"><g transform="translate(93.003415, 17.10949)"><path style="stroke:none" d="M 2.984375 -9.328125 L 0.5 -9.328125 L 0.5 -11.96875 L 9.53125 -11.96875 L 9.53125 -9.328125 L 7.046875 -9.328125 L 7.046875 0 L 2.984375 0 Z M 2.984375 -9.328125 "/></g></g><g clip-rule="nonzero" clip-path="url(#976b9047d3)"><path style=" stroke:none;fill-rule:nonzero;fill:#0056a2;fill-opacity:1;" d="M 45.378906 20.625 L 75.964844 20.625 L 75.964844 20.769531 L 45.378906 20.769531 Z M 45.378906 20.625 "/></g><g clip-rule="nonzero" clip-path="url(#a5a466161b)"><path style=" stroke:none;fill-rule:nonzero;fill:#0056a2;fill-opacity:1;" d="M 82.679688 20.625 L 113.265625 20.625 L 113.265625 20.769531 L 82.679688 20.769531 Z M 82.679688 20.625 "/></g><g clip-rule="nonzero" clip-path="url(#61bc8671aa)"><path style=" stroke:none;fill-rule:nonzero;fill:#0056a2;fill-opacity:1;" d="M 79.910156 20.695312 C 79.910156 20.722656 79.910156 20.746094 79.90625 20.769531 C 79.871094 21.058594 79.625 21.28125 79.324219 21.28125 C 79.027344 21.28125 78.78125 21.058594 78.746094 20.769531 C 78.742188 20.742188 78.742188 20.722656 78.742188 20.695312 C 78.742188 20.671875 78.742188 20.644531 78.746094 20.625 C 78.777344 20.335938 79.019531 20.113281 79.320312 20.113281 C 79.621094 20.113281 79.863281 20.335938 79.898438 20.625 C 79.90625 20.652344 79.910156 20.675781 79.910156 20.695312 Z M 79.910156 20.695312 "/></g><g style="fill:#197fab;fill-opacity:1;"><g transform="translate(56.441629, 27.727732)"><path style="stroke:none" d="M 1.5625 0.09375 C 1.03125 0.09375 0.582031 -0.00390625 0.21875 -0.203125 L 0.5 -1.0625 C 0.882812 -0.925781 1.226562 -0.859375 1.53125 -0.859375 C 1.695312 -0.859375 1.816406 -0.878906 1.890625 -0.921875 C 1.972656 -0.960938 2.015625 -1.019531 2.015625 -1.09375 C 2.015625 -1.144531 1.992188 -1.191406 1.953125 -1.234375 C 1.910156 -1.273438 1.828125 -1.316406 1.703125 -1.359375 C 1.578125 -1.410156 1.390625 -1.472656 1.140625 -1.546875 C 0.835938 -1.628906 0.601562 -1.769531 0.4375 -1.96875 C 0.269531 -2.175781 0.1875 -2.414062 0.1875 -2.6875 C 0.1875 -3.09375 0.320312 -3.398438 0.59375 -3.609375 C 0.863281 -3.828125 1.226562 -3.9375 1.6875 -3.9375 C 1.925781 -3.9375 2.160156 -3.910156 2.390625 -3.859375 C 2.617188 -3.804688 2.828125 -3.734375 3.015625 -3.640625 L 2.703125 -2.796875 C 2.492188 -2.859375 2.3125 -2.90625 2.15625 -2.9375 C 2.007812 -2.976562 1.863281 -3 1.71875 -3 C 1.46875 -3 1.34375 -2.929688 1.34375 -2.796875 C 1.34375 -2.722656 1.378906 -2.660156 1.453125 -2.609375 C 1.535156 -2.566406 1.703125 -2.507812 1.953125 -2.4375 C 2.347656 -2.332031 2.644531 -2.171875 2.84375 -1.953125 C 3.050781 -1.742188 3.15625 -1.492188 3.15625 -1.203125 C 3.15625 -0.785156 3.019531 -0.460938 2.75 -0.234375 C 2.476562 -0.015625 2.082031 0.09375 1.5625 0.09375 Z M 1.5625 0.09375 "/></g></g><g style="fill:#197fab;fill-opacity:1;"><g transform="translate(61.093215, 27.727732)"><path style="stroke:none" d="M 2.234375 0.09375 C 1.828125 0.09375 1.46875 0.0078125 1.15625 -0.15625 C 0.84375 -0.332031 0.597656 -0.570312 0.421875 -0.875 C 0.253906 -1.1875 0.171875 -1.535156 0.171875 -1.921875 C 0.171875 -2.304688 0.253906 -2.648438 0.421875 -2.953125 C 0.597656 -3.265625 0.84375 -3.503906 1.15625 -3.671875 C 1.46875 -3.847656 1.828125 -3.9375 2.234375 -3.9375 C 2.640625 -3.9375 2.992188 -3.847656 3.296875 -3.671875 C 3.609375 -3.503906 3.851562 -3.269531 4.03125 -2.96875 C 4.207031 -2.664062 4.296875 -2.316406 4.296875 -1.921875 C 4.296875 -1.535156 4.207031 -1.1875 4.03125 -0.875 C 3.851562 -0.570312 3.609375 -0.332031 3.296875 -0.15625 C 2.984375 0.0078125 2.628906 0.09375 2.234375 0.09375 Z M 2.234375 -0.921875 C 2.460938 -0.921875 2.648438 -1.015625 2.796875 -1.203125 C 2.953125 -1.390625 3.03125 -1.628906 3.03125 -1.921875 C 3.03125 -2.117188 2.992188 -2.296875 2.921875 -2.453125 C 2.859375 -2.609375 2.765625 -2.726562 2.640625 -2.8125 C 2.523438 -2.90625 2.382812 -2.953125 2.21875 -2.953125 C 2.070312 -2.953125 1.9375 -2.90625 1.8125 -2.8125 C 1.6875 -2.726562 1.585938 -2.609375 1.515625 -2.453125 C 1.453125 -2.296875 1.421875 -2.117188 1.421875 -1.921875 C 1.421875 -1.628906 1.492188 -1.390625 1.640625 -1.203125 C 1.796875 -1.015625 1.992188 -0.921875 2.234375 -0.921875 Z M 2.234375 -0.921875 "/></g></g><g style="fill:#197fab;fill-opacity:1;"><g transform="translate(66.896518, 27.727732)"><path style="stroke:none" d="M 0.359375 -3.84375 L 1.578125 -3.84375 L 1.578125 -0.84375 L 2.90625 -0.84375 L 2.90625 0 L 0.359375 0 Z M 0.359375 -3.84375 "/></g></g><g style="fill:#197fab;fill-opacity:1;"><g transform="translate(71.246195, 27.727732)"><path style="stroke:none" d="M 2.234375 0.09375 C 1.859375 0.09375 1.523438 0.0234375 1.234375 -0.109375 C 0.953125 -0.253906 0.726562 -0.457031 0.5625 -0.71875 C 0.40625 -0.976562 0.328125 -1.269531 0.328125 -1.59375 L 0.328125 -3.84375 L 1.59375 -3.84375 L 1.59375 -1.59375 C 1.59375 -1.375 1.644531 -1.207031 1.75 -1.09375 C 1.863281 -0.976562 2.023438 -0.921875 2.234375 -0.921875 C 2.441406 -0.921875 2.597656 -0.976562 2.703125 -1.09375 C 2.816406 -1.207031 2.875 -1.375 2.875 -1.59375 L 2.875 -3.84375 L 4.140625 -3.84375 L 4.140625 -1.59375 C 4.140625 -1.269531 4.054688 -0.976562 3.890625 -0.71875 C 3.734375 -0.457031 3.507812 -0.253906 3.21875 -0.109375 C 2.925781 0.0234375 2.597656 0.09375 2.234375 0.09375 Z M 2.234375 0.09375 "/></g></g><g style="fill:#197fab;fill-opacity:1;"><g transform="translate(77.049498, 27.727732)"><path style="stroke:none" d="M 0.96875 -3 L 0.15625 -3 L 0.15625 -3.84375 L 3.0625 -3.84375 L 3.0625 -3 L 2.265625 -3 L 2.265625 0 L 0.96875 0 Z M 0.96875 -3 "/></g></g><g style="fill:#197fab;fill-opacity:1;"><g transform="translate(81.617218, 27.727732)"><path style="stroke:none" d="M 0.359375 -3.84375 L 1.65625 -3.84375 L 1.65625 0 L 0.359375 0 Z M 0.359375 -3.84375 "/></g></g><g style="fill:#197fab;fill-opacity:1;"><g transform="translate(84.977315, 27.727732)"><path style="stroke:none" d="M 2.234375 0.09375 C 1.828125 0.09375 1.46875 0.0078125 1.15625 -0.15625 C 0.84375 -0.332031 0.597656 -0.570312 0.421875 -0.875 C 0.253906 -1.1875 0.171875 -1.535156 0.171875 -1.921875 C 0.171875 -2.304688 0.253906 -2.648438 0.421875 -2.953125 C 0.597656 -3.265625 0.84375 -3.503906 1.15625 -3.671875 C 1.46875 -3.847656 1.828125 -3.9375 2.234375 -3.9375 C 2.640625 -3.9375 2.992188 -3.847656 3.296875 -3.671875 C 3.609375 -3.503906 3.851562 -3.269531 4.03125 -2.96875 C 4.207031 -2.664062 4.296875 -2.316406 4.296875 -1.921875 C 4.296875 -1.535156 4.207031 -1.1875 4.03125 -0.875 C 3.851562 -0.570312 3.609375 -0.332031 3.296875 -0.15625 C 2.984375 0.0078125 2.628906 0.09375 2.234375 0.09375 Z M 2.234375 -0.921875 C 2.460938 -0.921875 2.648438 -1.015625 2.796875 -1.203125 C 2.953125 -1.390625 3.03125 -1.628906 3.03125 -1.921875 C 3.03125 -2.117188 2.992188 -2.296875 2.921875 -2.453125 C 2.859375 -2.609375 2.765625 -2.726562 2.640625 -2.8125 C 2.523438 -2.90625 2.382812 -2.953125 2.21875 -2.953125 C 2.070312 -2.953125 1.9375 -2.90625 1.8125 -2.8125 C 1.6875 -2.726562 1.585938 -2.609375 1.515625 -2.453125 C 1.453125 -2.296875 1.421875 -2.117188 1.421875 -1.921875 C 1.421875 -1.628906 1.492188 -1.390625 1.640625 -1.203125 C 1.796875 -1.015625 1.992188 -0.921875 2.234375 -0.921875 Z M 2.234375 -0.921875 "/></g></g><g style="fill:#197fab;fill-opacity:1;"><g transform="translate(90.780618, 27.727732)"><path style="stroke:none" d="M 0.359375 -3.84375 L 1.484375 -3.84375 L 3.015625 -1.765625 L 3.015625 -3.84375 L 4.015625 -3.84375 L 4.015625 0 L 2.90625 0 L 1.359375 -2 L 1.359375 0 L 0.359375 0 Z M 0.359375 -3.84375 "/></g></g><g style="fill:#197fab;fill-opacity:1;"><g transform="translate(96.505651, 27.727732)"><path style="stroke:none" d="M 1.5625 0.09375 C 1.03125 0.09375 0.582031 -0.00390625 0.21875 -0.203125 L 0.5 -1.0625 C 0.882812 -0.925781 1.226562 -0.859375 1.53125 -0.859375 C 1.695312 -0.859375 1.816406 -0.878906 1.890625 -0.921875 C 1.972656 -0.960938 2.015625 -1.019531 2.015625 -1.09375 C 2.015625 -1.144531 1.992188 -1.191406 1.953125 -1.234375 C 1.910156 -1.273438 1.828125 -1.316406 1.703125 -1.359375 C 1.578125 -1.410156 1.390625 -1.472656 1.140625 -1.546875 C 0.835938 -1.628906 0.601562 -1.769531 0.4375 -1.96875 C 0.269531 -2.175781 0.1875 -2.414062 0.1875 -2.6875 C 0.1875 -3.09375 0.320312 -3.398438 0.59375 -3.609375 C 0.863281 -3.828125 1.226562 -3.9375 1.6875 -3.9375 C 1.925781 -3.9375 2.160156 -3.910156 2.390625 -3.859375 C 2.617188 -3.804688 2.828125 -3.734375 3.015625 -3.640625 L 2.703125 -2.796875 C 2.492188 -2.859375 2.3125 -2.90625 2.15625 -2.9375 C 2.007812 -2.976562 1.863281 -3 1.71875 -3 C 1.46875 -3 1.34375 -2.929688 1.34375 -2.796875 C 1.34375 -2.722656 1.378906 -2.660156 1.453125 -2.609375 C 1.535156 -2.566406 1.703125 -2.507812 1.953125 -2.4375 C 2.347656 -2.332031 2.644531 -2.171875 2.84375 -1.953125 C 3.050781 -1.742188 3.15625 -1.492188 3.15625 -1.203125 C 3.15625 -0.785156 3.019531 -0.460938 2.75 -0.234375 C 2.476562 -0.015625 2.082031 0.09375 1.5625 0.09375 Z M 1.5625 0.09375 "/></g></g><g style="fill:#197fab;fill-opacity:1;"><g transform="translate(101.160962, 27.727732)"><path style="stroke:none" d=""/></g></g></g></svg>